M48
INCH,LZ
;FILE_FORMAT=2:4
;TYPE=PLATED
;Layer: PTH_Through
;EasyEDA v6.5.40, 2024-07-05 22:39:17
;43834020c9354f6683a6c21c991938a3,10
;Gerber Generator version 0.2
;Holesize 1 = 0.0280 inch
T01C0.0280
;Holesize 2 = 0.0320 inch
T02C0.0320
;Holesize 3 = 0.0350 inch
T03C0.0350
;Holesize 4 = 0.0360 inch
T04C0.0360
;Holesize 5 = 0.0390 inch
T05C0.0390
;Holesize 6 = 0.0430 inch
T06C0.0430
;Holesize 7 = 0.0500 inch
T07C0.0500
;Holesize 8 = 0.0510 inch
T08C0.0510
;Holesize 9 = 0.0550 inch
T09C0.0550
;Holesize 10 = 0.0590 inch
T10C0.0590
;Holesize 11 = 0.0670 inch
T11C0.0670
%
G05
G90
T01
X010505Y024450G85X011096Y024450
X012505Y024450G85X013095Y024450
X008504Y024450G85X009095Y024450
X006505Y024450G85X007095Y024450
T02
X006500Y012222G85X006500Y012340
X006500Y011041G85X006500Y011159
X006500Y009860G85X006500Y009978
T03
X015900Y012250
X017300Y012250
X021350Y012200
X022750Y012200
X026700Y012200
X028100Y012200
T04
X008700Y018081
X008700Y022018
X021150Y022750
X021150Y024800
X019350Y022750
X019350Y024800
T05
X025750Y024650
X025750Y022650
X012750Y018072
X012750Y022128
X020378Y020300
X016322Y020300
X026178Y020300
X022122Y020300
X019722Y014900
X023778Y014900
T06
X023250Y007200
X024250Y007200
X025250Y007200
T07
X029600Y004900
X029600Y026000
X004400Y025950
X004400Y004950
T08
X026250Y007200
T09
X026100Y017350
X028100Y017350
X027100Y017350
X021000Y017350
X023000Y017350
X022000Y017350
X015600Y017400
X017600Y017400
X016600Y017400
T10
X011150Y005288
X011150Y016312
T11
X016966Y007300
X018934Y007300
M30
